<?xml version="1.0" encoding="iso-8859-1"?>
<!-- Generator: Adobe Illustrator 16.0.0, SVG Export Plug-In . SVG Version: 6.00 Build 0)  -->
<svg version="1.1" id="Capa_1" xmlns="http://www.w3.org/2000/svg" xmlns:xlink="http://www.w3.org/1999/xlink" x="0px" y="0px"
	 width="572.475px" height="572.475px" viewBox="0 0 572.475 572.475" style="enable-background:new 0 0 572.475 572.475;"
	 xml:space="preserve">
<g>
	<g id="Layer_1_53_">
		<g>
			<path d="M271.575,427.125c3.825-10.201,5.1-21.676,0-31.875c-6.375-15.301-21.675-25.5-36.975-25.5
				c-5.1,0-8.925,1.275-14.025,2.549L140.25,402.9V299.625c0-7.65-3.825-14.025-10.2-17.851c-2.55-1.275-6.375-2.55-8.925-2.55
				c-3.825,0-7.65,1.275-11.475,3.825l-87.975,59.925C7.65,351.9,0,368.475,0,385.049v91.801c0,24.225,17.85,45.9,42.075,49.725
				l42.075,7.65c2.55,0,6.375,1.275,8.925,1.275c20.4,0,39.525-12.75,47.175-33.15l5.1-14.025l104.55-38.25
				C258.825,444.975,267.75,437.324,271.575,427.125z"/>
			<path d="M415.65,36.975c-76.5,0-140.25,54.825-154.275,127.5L204,156.825c-15.3-2.55-29.325,8.925-30.6,22.95l-11.475,81.6
				c8.925,10.2,15.3,24.225,15.3,38.25v51L209.1,339.15c8.925-2.551,17.85-5.102,26.775-5.102c31.875,0,59.925,19.125,71.4,48.451
				c7.649,19.125,7.649,40.799-1.275,59.924s-24.225,34.426-43.35,40.801l-56.1,20.4l138.976,19.125
				c15.3,2.549,29.324-8.926,30.6-22.951l20.4-149.174c6.375,1.275,12.75,1.275,19.125,1.275
				c86.699,0,156.824-70.126,156.824-156.826C572.475,108.375,502.35,36.975,415.65,36.975z M392.7,182.325l-24.226-3.825
				c6.375-20.4,25.5-35.7,48.45-35.7c28.05,0,51,22.95,51,51c0,28.05-22.95,51-51,51c-1.274,0-2.55,0-3.825,0l3.825-30.6
				C418.2,197.625,406.725,184.875,392.7,182.325z M415.65,313.65c-5.101,0-8.926,0-14.025-1.275l3.825-31.875
				c2.55,0,6.375,0,8.925,0c48.45,0,86.7-39.525,86.7-86.7c0-48.45-39.525-86.7-86.7-86.7c-40.8,0-76.5,29.325-85.425,67.575
				l-31.875-3.825c11.475-54.825,59.925-95.625,117.3-95.625c66.3,0,119.85,53.55,119.85,119.85
				C534.225,261.375,481.95,313.65,415.65,313.65z"/>
		</g>
	</g>
</g>
<g>
</g>
<g>
</g>
<g>
</g>
<g>
</g>
<g>
</g>
<g>
</g>
<g>
</g>
<g>
</g>
<g>
</g>
<g>
</g>
<g>
</g>
<g>
</g>
<g>
</g>
<g>
</g>
<g>
</g>
</svg>
