<?xml version="1.0" encoding="iso-8859-1"?>
<!-- Generator: Adobe Illustrator 19.0.0, SVG Export Plug-In . SVG Version: 6.00 Build 0)  -->
<svg version="1.1" id="Layer_1" xmlns="http://www.w3.org/2000/svg" xmlns:xlink="http://www.w3.org/1999/xlink" x="0px" y="0px"
	 viewBox="0 0 511.825 511.825" style="enable-background:new 0 0 511.825 511.825;" xml:space="preserve">
<g>
	<g>
		<g>
			<path d="M454.369,442.402H320.824c40.986-10.318,70.066-29.314,90.676-53.881c63.271-9.754,91.735-62.317,91.735-111
				c0-34.356-18.831-62.881-43.442-68.391c0-0.304,0.009-0.607,0.009-0.911c0.043-4.643-1.736-9.025-5.016-12.323
				c-3.298-3.324-7.68-5.155-12.357-5.155H43.363c-4.677,0-9.068,1.831-12.366,5.155c-3.272,3.298-5.059,7.68-5.016,12.323
				c0.868,101.159,19.881,204.201,138.986,234.184H31.422c-12.583,0-22.832,10.24-22.832,22.832
				c0,10.544,7.229,18.371,18.866,20.428l110.08,8.105c2.681,0.2,5.094,1.814,6.292,4.218c4.27,8.539,12.843,13.841,22.389,13.841
				h144.696c9.52,0,18.085-5.294,22.346-13.815c1.206-2.404,3.619-4.009,6.309-4.2l117.847-8.044l0.92-0.104
				c11.637-2.057,18.866-9.884,18.866-20.428C477.201,452.642,466.952,442.402,454.369,442.402z M427.138,366.357
				c2.43-4.174,4.643-8.47,6.743-12.843c0.833-1.736,1.666-3.454,2.447-5.207c1.657-3.74,3.202-7.55,4.643-11.412
				c0.998-2.673,1.927-5.363,2.829-8.079c0.451-1.371,0.868-2.76,1.293-4.148c1.753-5.649,3.324-11.333,4.677-17.078
				c0.035-0.139,0.069-0.286,0.104-0.434c4.235-18.024,6.708-36.291,8.079-54.003V253.1c0.434-5.537,0.781-10.978,1.033-16.349
				c0.13-2.569,0.252-5.137,0.347-7.715c0.026-0.668,0.069-1.371,0.095-2.031c14.978,5.727,26.45,26.537,26.45,50.514
				c0,33.913-15.933,74.778-59.166,89.635C426.869,366.895,426.981,366.617,427.138,366.357z M199.384,400.461
				c-0.72,4.235-4.391,7.229-8.548,7.229c-0.477,0-0.972-0.043-1.467-0.122c-68.868-11.689-105.845-51.321-119.895-128.495
				c-0.859-4.712,2.265-9.233,6.986-10.092c4.747-0.85,9.233,2.274,10.092,6.986c12.705,69.823,44.327,104.066,105.724,114.488
				C197.007,391.254,200.183,395.74,199.384,400.461z"/>
			<path d="M236.907,71.819c-13.078,12.47-19.82,25.843-20.037,39.762c-0.226,14.293,6.448,28.429,19.846,42.027
				c1.692,1.727,3.94,2.595,6.179,2.595c2.196,0,4.4-0.833,6.092-2.499c3.41-3.367,3.454-8.86,0.087-12.271
				c-9.997-10.162-15.004-20.107-14.848-29.575c0.139-9.094,5.068-18.345,14.588-27.405c13.303-12.401,20.142-25.895,20.315-40.127
				c0.174-14.527-6.613-28.611-20.168-41.862c-3.419-3.341-8.921-3.28-12.271,0.148c-3.35,3.428-3.289,8.921,0.139,12.271
				c10.032,9.797,15.065,19.638,14.943,29.236C251.66,53.413,246.687,62.716,236.907,71.819z"/>
			<path d="M332.161,71.819c-13.078,12.47-19.82,25.843-20.037,39.762c-0.226,14.293,6.448,28.429,19.846,42.027
				c1.692,1.727,3.94,2.595,6.179,2.595c2.195,0,4.4-0.833,6.092-2.499c3.41-3.367,3.454-8.86,0.087-12.271
				c-9.997-10.162-15.004-20.107-14.848-29.575c0.139-9.094,5.068-18.345,14.588-27.405c13.373-12.462,20.246-26.017,20.419-40.283
				c0.174-14.492-6.578-28.524-20.072-41.706c-3.419-3.341-8.921-3.28-12.271,0.148c-3.35,3.428-3.28,8.921,0.148,12.271
				c9.962,9.737,14.952,19.517,14.839,29.08C347.017,53.301,342.002,62.647,332.161,71.819z"/>
			<path d="M149.923,71.819c-13.078,12.47-19.82,25.843-20.037,39.762c-0.226,14.293,6.448,28.429,19.846,42.027
				c1.692,1.727,3.94,2.595,6.179,2.595c2.196,0,4.4-0.833,6.092-2.499c3.41-3.367,3.454-8.86,0.087-12.271
				c-9.997-10.162-15.004-20.107-14.848-29.575c0.139-9.094,5.068-18.345,14.588-27.405c13.373-12.462,20.246-26.017,20.419-40.283
				c0.174-14.492-6.578-28.524-20.072-41.706c-3.419-3.341-8.921-3.28-12.271,0.148c-3.35,3.428-3.28,8.921,0.148,12.271
				c9.962,9.737,14.952,19.517,14.839,29.08C164.78,53.301,159.764,62.647,149.923,71.819z"/>
		</g>
	</g>
</g>
<g>
</g>
<g>
</g>
<g>
</g>
<g>
</g>
<g>
</g>
<g>
</g>
<g>
</g>
<g>
</g>
<g>
</g>
<g>
</g>
<g>
</g>
<g>
</g>
<g>
</g>
<g>
</g>
<g>
</g>
</svg>
