<?xml version="1.0" encoding="iso-8859-1"?>
<!-- Generator: Adobe Illustrator 19.0.0, SVG Export Plug-In . SVG Version: 6.00 Build 0)  -->
<svg version="1.1" id="Layer_1" xmlns="http://www.w3.org/2000/svg" xmlns:xlink="http://www.w3.org/1999/xlink" x="0px" y="0px"
	 viewBox="0 0 512 512" style="enable-background:new 0 0 512 512;" xml:space="preserve">
<g>
	<g>
		<g>
			<path d="M452.267,179.2h-77.03c0.128-3.755,0.23-7.518,0.23-11.281v-56.986c0-51.755-42.104-93.867-93.867-93.867
				c-4.437,0-8.806,0.401-13.116,1.007C252.348,6.281,233.387,0,213.333,0s-39.031,6.289-55.168,18.091
				c-4.292-0.606-8.636-1.024-13.099-1.024c-47.189,0-87.194,35.311-92.919,81.34c-0.137,0.606-0.23,1.203-0.358,2.193
				c-0.008,0.051-0.128,0.998-0.136,1.041c-0.239,1.655-0.452,3.311-0.452,5.026v67.294c0,0.93,0.171,1.826,0.239,2.739
				c0,0.102-0.051,0.188-0.051,0.29c0.939,33.792,6.997,66.978,18.014,98.628l21.956,63.13
				c11.742,33.741,17.399,69.359,17.075,104.986h209.801c-0.102-11.622,0.495-23.236,1.673-34.799
				C423.578,400.606,460.8,290.176,460.8,187.733C460.8,183.014,456.986,179.2,452.267,179.2z M245.743,24.235
				c-0.435,0.179-0.845,0.418-1.28,0.614c-2.406,1.041-4.779,2.142-7.091,3.379c-0.691,0.375-1.357,0.794-2.039,1.178
				c-2.21,1.263-4.403,2.56-6.511,4.011c-0.828,0.563-1.604,1.203-2.415,1.792c-1.886,1.391-3.78,2.773-5.572,4.309
				c-1.22,1.041-2.355,2.21-3.524,3.319c-1.297,1.237-2.654,2.406-3.891,3.729c-0.026,0.026-0.051,0.051-0.085,0.077
				c-0.145-0.154-0.307-0.282-0.452-0.435c-1.886-1.98-3.866-3.857-5.922-5.666c-0.375-0.333-0.742-0.691-1.126-1.024
				c-2.364-2.014-4.83-3.925-7.39-5.7c-0.068-0.051-0.128-0.102-0.196-0.154c-5.393-3.721-11.17-6.895-17.289-9.438
				C201.071,14.797,225.638,14.805,245.743,24.235z M154.155,426.641c-0.188,0.009-0.375,0.017-0.563,0.017
				c-4.454,0-8.209-3.465-8.508-7.979c-2.048-31.744-12.015-63.889-21.495-91.153l-22.562-64.87
				c-2.569-7.398-4.796-13.781-6.784-21.641c-1.143-4.565,1.621-9.207,6.195-10.359c4.574-1.135,9.207,1.621,10.359,6.195
				c1.792,7.125,3.908,13.175,6.349,20.181l22.562,64.896c9.856,28.339,20.233,61.867,22.417,95.65
				C162.423,422.272,158.857,426.334,154.155,426.641z M168.004,102.4c-12.638,0-22.938,10.291-22.938,22.938v27.221
				c0,4.634-3.089,8.781-7.031,9.446c-3.439,0.614-5.854-0.939-6.98-1.886C129.118,158.473,128,156.1,128,153.6V128
				c0-4.719-3.814-8.533-8.533-8.533c-4.71,0-8.533,3.814-8.533,8.533v25.6v19.772c0,9.771-5.76,18.355-14.131,21.504
				c-0.538,0.196-1.058,0.427-1.604,0.58c-1.28,0.367-2.569,0.529-3.874,0.631c-0.375,0.026-0.734,0.12-1.118,0.137
				c-1.673,0.026-3.43-0.145-5.359-0.572l-2.133-0.649c-0.384-0.111-0.776-0.196-1.126-0.333c-0.691-0.299-1.323-0.691-2.313-1.263
				c-0.128-0.068-1.084-0.555-1.22-0.623c-0.273-0.179-0.538-0.401-0.811-0.597c-0.307-0.23-0.606-0.461-0.905-0.708
				c-0.341-0.29-0.708-0.597-1.126-0.956c-0.478-0.461-0.905-0.973-1.34-1.485c-0.324-0.358-0.666-0.708-0.964-1.092
				c-0.401-0.538-0.742-1.135-1.101-1.707c-0.572-0.913-1.058-1.86-1.493-2.842c-0.265-0.606-0.572-1.195-0.785-1.826
				c-0.546-1.664-0.93-3.396-1.058-5.18c-0.085-0.811-0.205-1.604-0.205-2.432v-67.294c0-0.879,0.154-1.715,0.367-3.337
				c0.009-0.077,0.111-0.777,0.128-0.853c0-0.026,0.188-1.143,0.188-1.169c4.787-38.289,37.513-67.174,76.117-67.174
				c4.625,0,9.148,0.444,13.551,1.237c0.077,0.017,0.145,0.06,0.222,0.068c19.012,3.439,35.925,13.943,47.65,29.542
				c0.008,0.009,0.008,0.017,0.017,0.026c3.661,4.898,6.682,10.12,9.054,15.59c0.077,0.171,0.171,0.341,0.247,0.512
				c0.495,1.169,0.905,2.364,1.348,3.55c0.341,0.93,0.7,1.86,1.007,2.816c0.316,0.964,0.572,1.954,0.853,2.935
				c0.333,1.212,0.657,2.432,0.939,3.669c0.196,0.879,0.375,1.766,0.538,2.654c0.265,1.382,0.486,2.773,0.666,4.181
				c0.068,0.495,0.128,0.99,0.179,1.485H168.004z M238.558,102.4c-0.017-0.162-0.06-0.324-0.077-0.486
				c-0.333-3.49-0.853-6.921-1.562-10.291c-0.145-0.708-0.375-1.391-0.538-2.091c-0.64-2.722-1.374-5.41-2.244-8.038
				c-0.316-0.956-0.683-1.886-1.033-2.825c-0.913-2.475-1.911-4.898-3.021-7.27c-0.358-0.776-0.725-1.544-1.109-2.304
				c-1.425-2.842-2.97-5.598-4.668-8.26c-0.102-0.171-0.179-0.35-0.282-0.512c0.128-0.154,0.247-0.324,0.384-0.469
				c1.152-1.297,2.381-2.5,3.61-3.712c2.33-2.287,4.745-4.463,7.322-6.426c0.008,0,0.017-0.009,0.026-0.017
				c1.63-1.229,3.319-2.364,5.035-3.456c0.341-0.222,0.666-0.461,1.016-0.674c1.741-1.075,3.533-2.057,5.35-2.987
				c0.341-0.171,0.674-0.358,1.016-0.521c1.86-0.913,3.755-1.741,5.683-2.509c0.324-0.119,0.64-0.256,0.964-0.375
				c1.971-0.742,3.968-1.408,5.999-1.988c0.299-0.085,0.597-0.162,0.888-0.247c2.082-0.563,4.198-1.067,6.332-1.459
				c4.557-0.828,9.207-1.348,13.952-1.348c39.467,0,72.073,29.918,76.331,68.267H238.558z M322.099,391.654
				c0.034-0.222,0.06-0.444,0.094-0.666c0.512-3.2,1.118-6.374,1.732-9.549c0.23-1.161,0.41-2.33,0.648-3.499
				c2.739-13.397,6.332-26.513,10.743-39.202l21.956-63.121c2.014-5.794,3.797-11.648,5.487-17.527
				c0.341-1.212,0.683-2.432,1.015-3.644c3.405-12.433,6.067-25.02,7.979-37.734c0.017-0.111,0.034-0.23,0.051-0.341
				c0.998-6.673,1.843-13.372,2.423-20.105h69.385C442.368,241.673,429.688,380.015,322.099,391.654z"/>
			<path d="M319.022,460.8H107.651c-0.666,10.76-1.681,21.35-3.328,31.42c-0.828,4.975,0.563,10.018,3.806,13.85
				c0.742,0.879,1.587,1.647,2.483,2.347c0.06,0.051,0.111,0.111,0.171,0.162c0.478,0.367,1.033,0.623,1.545,0.93
				c1.553,0.939,3.208,1.698,4.992,2.091c1.186,0.265,2.415,0.401,3.652,0.401h184.73c1.246,0,2.466-0.136,3.652-0.401
				c1.783-0.393,3.439-1.152,4.992-2.091c0.521-0.307,1.067-0.563,1.545-0.93c0.068-0.051,0.111-0.111,0.171-0.162
				c0.896-0.7,1.741-1.468,2.483-2.347c3.243-3.831,4.634-8.875,3.806-13.85C320.703,482.15,319.688,471.561,319.022,460.8z"/>
		</g>
	</g>
</g>
<g>
</g>
<g>
</g>
<g>
</g>
<g>
</g>
<g>
</g>
<g>
</g>
<g>
</g>
<g>
</g>
<g>
</g>
<g>
</g>
<g>
</g>
<g>
</g>
<g>
</g>
<g>
</g>
<g>
</g>
</svg>
