<?xml version="1.0" encoding="iso-8859-1"?>
<!-- Generator: Adobe Illustrator 19.0.0, SVG Export Plug-In . SVG Version: 6.00 Build 0)  -->
<svg version="1.1" id="Layer_1" xmlns="http://www.w3.org/2000/svg" xmlns:xlink="http://www.w3.org/1999/xlink" x="0px" y="0px"
	 viewBox="0 0 512 512" style="enable-background:new 0 0 512 512;" xml:space="preserve">
<g>
	<g>
		<g>
			<path d="M487.054,417.185H379.259v-42.724c14.033-11.103,24.083-27.079,27.316-45.312l5.613-33.375l2.759-13.217
				c47.019-6.997,78.089-76.781,78.089-178.261c0-5.243-4.248-9.482-9.482-9.482h-63.46c-0.578-3.489-1.043-6.978-1.697-10.458
				L407.543,26.69c-0.844-4.485-4.76-7.727-9.32-7.727h-56.889v71.927l35.148,35.148c1.783,1.773,2.778,4.181,2.778,6.703v85.333
				c0,5.234-4.248,9.482-9.482,9.482h-75.852c-5.234,0-9.481-4.248-9.481-9.482v-85.333c0-2.522,0.996-4.93,2.778-6.703
				l35.148-35.148V18.963H113.778c-4.561,0-8.476,3.243-9.32,7.727L93.601,84.366c-11.899,63.621-11.217,128.01,2.02,191.374
				l3.783,18.072c1.261,6.021,2.617,14.478,3.878,22.329c0.768,4.807,1.498,9.396,2.162,13.103
				c3.224,18.176,13.265,34.124,27.297,45.227v42.714H24.946C11.198,417.185,0,428.373,0,442.122
				c0,11.52,7.898,20.082,21.513,22.443l120.007,9.482c3.944,0.294,5.367,2.114,6.239,3.859c4.665,9.33,14.033,15.132,24.462,15.132
				h158.094c10.411,0,19.759-5.793,24.424-15.094c1.252-2.522,3.11-3.688,6.248-3.897l129.451-9.482l0.948-0.123
				C504.102,462.203,512,453.642,512,442.122C512,428.373,500.802,417.185,487.054,417.185z M419.982,256.095
				c0.446-2.636,0.872-5.272,1.271-7.908c0.702-4.665,1.308-9.339,1.877-14.014c0.332-2.721,0.711-5.442,0.996-8.173
				c0.664-6.447,1.223-12.904,1.631-19.371c0.275-4.162,0.398-8.325,0.569-12.487c0.095-2.683,0.218-5.367,0.275-8.05
				c0.114-4.617,0.133-9.235,0.104-13.852c-0.01-1.982-0.047-3.954-0.085-5.935c-0.313-17.522-1.527-35.044-3.726-52.527h51.086
				c-1.659,78.165-23.685,136.476-54.955,148.309C419.385,260.096,419.65,258.086,419.982,256.095z M142.791,322.626
				c-0.635-3.537-1.337-7.908-2.067-12.497c-1.356-8.458-2.835-17.569-4.191-24.064c-1.071-5.13,2.219-10.155,7.348-11.217
				c5.12-1.109,10.145,2.209,11.217,7.339c1.403,6.722,2.939,16.166,4.352,24.946c0.711,4.475,1.394,8.732,2.001,12.174
				c1.252,6.997,6.77,12.629,13.758,14.023c5.129,1.015,8.467,6.011,7.443,11.15c-0.901,4.504-4.864,7.623-9.292,7.623
				c-0.607,0-1.233-0.057-1.858-0.18C156.919,349.023,145.38,337.247,142.791,322.626z M360.296,417.185H151.704v-31.753
				c0.19,0.076,0.379,0.123,0.559,0.199c0.806,0.303,1.621,0.569,2.427,0.844c3.081,1.081,6.201,2.01,9.368,2.645
				c61.004,12.203,122.88,12.203,183.884,0c0.01-0.01,0.029-0.01,0.038-0.01c3.157-0.635,6.248-1.555,9.311-2.626
				c0.825-0.284,1.65-0.55,2.456-0.863c0.18-0.066,0.37-0.114,0.55-0.19V417.185z"/>
			<polygon points="303.407,208.589 360.296,208.589 360.296,136.662 331.852,108.218 303.407,136.662 			"/>
		</g>
	</g>
</g>
<g>
</g>
<g>
</g>
<g>
</g>
<g>
</g>
<g>
</g>
<g>
</g>
<g>
</g>
<g>
</g>
<g>
</g>
<g>
</g>
<g>
</g>
<g>
</g>
<g>
</g>
<g>
</g>
<g>
</g>
</svg>
